<mxfile host="app.diagrams.net" agent="Mozilla/5.0 (Windows NT 10.0; Win64; x64) AppleWebKit/537.36 (KHTML, like Gecko) Chrome/129.0.0.0 Safari/537.36" version="24.7.17">
  <diagram name="Arquitectura" id="u-tzAP_CyQNryh3ZNHqW">
    <mxGraphModel dx="712" dy="771" grid="1" gridSize="10" guides="1" tooltips="1" connect="1" arrows="1" fold="1" page="1" pageScale="1" pageWidth="827" pageHeight="1169" math="0" shadow="0">
      <root>
        <mxCell id="0" />
        <mxCell id="1" parent="0" />
        <mxCell id="5HdY6qBEU2Qn8acYaTiq-2" value="&lt;b&gt;Back-end Slim Framework (PHP)&lt;/b&gt;&lt;div&gt;&lt;b&gt;&lt;br&gt;&lt;/b&gt;&lt;/div&gt;&lt;div&gt;&lt;b&gt;&lt;br&gt;&lt;/b&gt;&lt;/div&gt;&lt;div&gt;&lt;b&gt;&lt;br&gt;&lt;/b&gt;&lt;/div&gt;&lt;div&gt;&lt;b&gt;&lt;br&gt;&lt;/b&gt;&lt;/div&gt;&lt;div&gt;&lt;b&gt;&lt;br&gt;&lt;/b&gt;&lt;/div&gt;&lt;div&gt;&lt;br&gt;&lt;/div&gt;&lt;div&gt;&lt;br&gt;&lt;/div&gt;&lt;div&gt;&lt;br&gt;&lt;/div&gt;&lt;div&gt;&lt;br&gt;&lt;/div&gt;" style="shape=cube;whiteSpace=wrap;html=1;boundedLbl=1;backgroundOutline=1;darkOpacity=0.05;darkOpacity2=0.1;" vertex="1" parent="1">
          <mxGeometry x="260" y="210" width="570" height="200" as="geometry" />
        </mxCell>
        <mxCell id="5HdY6qBEU2Qn8acYaTiq-5" value="Front-end" style="swimlane;whiteSpace=wrap;html=1;fillColor=default;" vertex="1" parent="1">
          <mxGeometry x="20" y="110" width="170" height="210" as="geometry" />
        </mxCell>
        <mxCell id="5HdY6qBEU2Qn8acYaTiq-6" value="Web App Angular" style="rounded=1;whiteSpace=wrap;html=1;" vertex="1" parent="5HdY6qBEU2Qn8acYaTiq-5">
          <mxGeometry x="25" y="40" width="120" height="60" as="geometry" />
        </mxCell>
        <mxCell id="5HdY6qBEU2Qn8acYaTiq-7" value="Angular modules" style="rounded=1;whiteSpace=wrap;html=1;" vertex="1" parent="5HdY6qBEU2Qn8acYaTiq-5">
          <mxGeometry x="25" y="130" width="120" height="60" as="geometry" />
        </mxCell>
        <mxCell id="5HdY6qBEU2Qn8acYaTiq-18" value="" style="endArrow=classic;html=1;rounded=0;exitX=0.5;exitY=1;exitDx=0;exitDy=0;entryX=0.5;entryY=0;entryDx=0;entryDy=0;" edge="1" parent="5HdY6qBEU2Qn8acYaTiq-5" source="5HdY6qBEU2Qn8acYaTiq-6" target="5HdY6qBEU2Qn8acYaTiq-7">
          <mxGeometry width="50" height="50" relative="1" as="geometry">
            <mxPoint x="190" y="310" as="sourcePoint" />
            <mxPoint x="240" y="260" as="targetPoint" />
          </mxGeometry>
        </mxCell>
        <mxCell id="5HdY6qBEU2Qn8acYaTiq-8" value="API" style="rounded=1;whiteSpace=wrap;html=1;" vertex="1" parent="1">
          <mxGeometry x="360" y="260" width="70" height="50" as="geometry" />
        </mxCell>
        <mxCell id="5HdY6qBEU2Qn8acYaTiq-9" value="Servicio historiales" style="rounded=1;whiteSpace=wrap;html=1;" vertex="1" parent="1">
          <mxGeometry x="700" y="340" width="120" height="60" as="geometry" />
        </mxCell>
        <mxCell id="5HdY6qBEU2Qn8acYaTiq-10" value="Servicio citas" style="rounded=1;whiteSpace=wrap;html=1;" vertex="1" parent="1">
          <mxGeometry x="570" y="340" width="120" height="60" as="geometry" />
        </mxCell>
        <mxCell id="5HdY6qBEU2Qn8acYaTiq-11" value="Servicio usuarios" style="rounded=1;whiteSpace=wrap;html=1;" vertex="1" parent="1">
          <mxGeometry x="293.5" y="340" width="120" height="60" as="geometry" />
        </mxCell>
        <mxCell id="5HdY6qBEU2Qn8acYaTiq-12" value="Servicio administraciÃ³n" style="rounded=1;whiteSpace=wrap;html=1;" vertex="1" parent="1">
          <mxGeometry x="430" y="340" width="120" height="60" as="geometry" />
        </mxCell>
        <mxCell id="5HdY6qBEU2Qn8acYaTiq-19" value="" style="endArrow=classic;html=1;rounded=0;exitX=1;exitY=0.5;exitDx=0;exitDy=0;entryX=0;entryY=0.5;entryDx=0;entryDy=0;" edge="1" parent="1" source="5HdY6qBEU2Qn8acYaTiq-6" target="5HdY6qBEU2Qn8acYaTiq-8">
          <mxGeometry width="50" height="50" relative="1" as="geometry">
            <mxPoint x="450" y="420" as="sourcePoint" />
            <mxPoint x="500" y="370" as="targetPoint" />
          </mxGeometry>
        </mxCell>
        <mxCell id="5HdY6qBEU2Qn8acYaTiq-20" value="" style="endArrow=classic;html=1;rounded=0;exitX=0.25;exitY=1;exitDx=0;exitDy=0;entryX=0.5;entryY=0;entryDx=0;entryDy=0;" edge="1" parent="1" source="5HdY6qBEU2Qn8acYaTiq-8" target="5HdY6qBEU2Qn8acYaTiq-11">
          <mxGeometry width="50" height="50" relative="1" as="geometry">
            <mxPoint x="175" y="190" as="sourcePoint" />
            <mxPoint x="370" y="295" as="targetPoint" />
          </mxGeometry>
        </mxCell>
        <mxCell id="5HdY6qBEU2Qn8acYaTiq-21" value="" style="endArrow=classic;html=1;rounded=0;exitX=1;exitY=0.75;exitDx=0;exitDy=0;entryX=0.5;entryY=0;entryDx=0;entryDy=0;" edge="1" parent="1" source="5HdY6qBEU2Qn8acYaTiq-8" target="5HdY6qBEU2Qn8acYaTiq-10">
          <mxGeometry width="50" height="50" relative="1" as="geometry">
            <mxPoint x="185" y="200" as="sourcePoint" />
            <mxPoint x="380" y="305" as="targetPoint" />
          </mxGeometry>
        </mxCell>
        <mxCell id="5HdY6qBEU2Qn8acYaTiq-22" value="" style="endArrow=classic;html=1;rounded=0;exitX=1;exitY=0.25;exitDx=0;exitDy=0;entryX=0.5;entryY=0;entryDx=0;entryDy=0;" edge="1" parent="1" source="5HdY6qBEU2Qn8acYaTiq-8" target="5HdY6qBEU2Qn8acYaTiq-9">
          <mxGeometry width="50" height="50" relative="1" as="geometry">
            <mxPoint x="405" y="320" as="sourcePoint" />
            <mxPoint x="500" y="350" as="targetPoint" />
          </mxGeometry>
        </mxCell>
        <mxCell id="5HdY6qBEU2Qn8acYaTiq-23" value="" style="endArrow=classic;html=1;rounded=0;exitX=0.5;exitY=1;exitDx=0;exitDy=0;entryX=0.5;entryY=0;entryDx=0;entryDy=0;" edge="1" parent="1" source="5HdY6qBEU2Qn8acYaTiq-8" target="5HdY6qBEU2Qn8acYaTiq-12">
          <mxGeometry width="50" height="50" relative="1" as="geometry">
            <mxPoint x="415" y="330" as="sourcePoint" />
            <mxPoint x="510" y="360" as="targetPoint" />
          </mxGeometry>
        </mxCell>
        <mxCell id="5HdY6qBEU2Qn8acYaTiq-25" value="" style="group" vertex="1" connectable="0" parent="1">
          <mxGeometry x="360" y="460" width="420" height="130" as="geometry" />
        </mxCell>
        <mxCell id="5HdY6qBEU2Qn8acYaTiq-13" value="&lt;b&gt;Database&lt;/b&gt;&lt;div&gt;&lt;b&gt;&lt;br&gt;&lt;/b&gt;&lt;/div&gt;&lt;div&gt;&lt;b&gt;&lt;br&gt;&lt;/b&gt;&lt;/div&gt;&lt;div&gt;&lt;b&gt;&lt;br&gt;&lt;/b&gt;&lt;/div&gt;&lt;div&gt;&lt;b&gt;&lt;br&gt;&lt;/b&gt;&lt;/div&gt;&lt;div&gt;&lt;br&gt;&lt;/div&gt;" style="shape=cylinder3;whiteSpace=wrap;html=1;boundedLbl=1;backgroundOutline=1;size=15;" vertex="1" parent="5HdY6qBEU2Qn8acYaTiq-25">
          <mxGeometry width="420" height="130" as="geometry" />
        </mxCell>
        <mxCell id="5HdY6qBEU2Qn8acYaTiq-14" value="Historiales" style="rounded=1;whiteSpace=wrap;html=1;container=0;" vertex="1" parent="5HdY6qBEU2Qn8acYaTiq-25">
          <mxGeometry x="290" y="65" width="80" height="40" as="geometry" />
        </mxCell>
        <mxCell id="5HdY6qBEU2Qn8acYaTiq-16" value="Mascotas" style="rounded=1;whiteSpace=wrap;html=1;container=0;" vertex="1" parent="5HdY6qBEU2Qn8acYaTiq-25">
          <mxGeometry x="120" y="65" width="70" height="40" as="geometry" />
        </mxCell>
        <mxCell id="5HdY6qBEU2Qn8acYaTiq-15" value="Citas" style="rounded=1;whiteSpace=wrap;html=1;container=0;" vertex="1" parent="5HdY6qBEU2Qn8acYaTiq-25">
          <mxGeometry x="210" y="65" width="60" height="40" as="geometry" />
        </mxCell>
        <mxCell id="5HdY6qBEU2Qn8acYaTiq-17" value="Usuarios" style="rounded=1;whiteSpace=wrap;html=1;container=0;" vertex="1" parent="5HdY6qBEU2Qn8acYaTiq-25">
          <mxGeometry x="33.5" y="65" width="70" height="40" as="geometry" />
        </mxCell>
        <mxCell id="5HdY6qBEU2Qn8acYaTiq-26" value="" style="endArrow=classic;html=1;rounded=0;exitX=0.5;exitY=1;exitDx=0;exitDy=0;entryX=0.5;entryY=0;entryDx=0;entryDy=0;" edge="1" parent="1" source="5HdY6qBEU2Qn8acYaTiq-11" target="5HdY6qBEU2Qn8acYaTiq-17">
          <mxGeometry width="50" height="50" relative="1" as="geometry">
            <mxPoint x="425" y="340" as="sourcePoint" />
            <mxPoint x="520" y="370" as="targetPoint" />
          </mxGeometry>
        </mxCell>
        <mxCell id="5HdY6qBEU2Qn8acYaTiq-27" value="" style="endArrow=classic;html=1;rounded=0;exitX=0.5;exitY=1;exitDx=0;exitDy=0;entryX=0.5;entryY=0;entryDx=0;entryDy=0;" edge="1" parent="1" source="5HdY6qBEU2Qn8acYaTiq-10" target="5HdY6qBEU2Qn8acYaTiq-16">
          <mxGeometry width="50" height="50" relative="1" as="geometry">
            <mxPoint x="435" y="350" as="sourcePoint" />
            <mxPoint x="530" y="380" as="targetPoint" />
          </mxGeometry>
        </mxCell>
        <mxCell id="5HdY6qBEU2Qn8acYaTiq-28" value="" style="endArrow=classic;html=1;rounded=0;exitX=0.5;exitY=1;exitDx=0;exitDy=0;entryX=0.5;entryY=0;entryDx=0;entryDy=0;" edge="1" parent="1" source="5HdY6qBEU2Qn8acYaTiq-10" target="5HdY6qBEU2Qn8acYaTiq-15">
          <mxGeometry width="50" height="50" relative="1" as="geometry">
            <mxPoint x="445" y="360" as="sourcePoint" />
            <mxPoint x="540" y="390" as="targetPoint" />
          </mxGeometry>
        </mxCell>
        <mxCell id="5HdY6qBEU2Qn8acYaTiq-29" value="" style="endArrow=classic;html=1;rounded=0;exitX=0.5;exitY=1;exitDx=0;exitDy=0;entryX=0.5;entryY=0;entryDx=0;entryDy=0;" edge="1" parent="1" source="5HdY6qBEU2Qn8acYaTiq-9" target="5HdY6qBEU2Qn8acYaTiq-14">
          <mxGeometry width="50" height="50" relative="1" as="geometry">
            <mxPoint x="455" y="370" as="sourcePoint" />
            <mxPoint x="550" y="400" as="targetPoint" />
          </mxGeometry>
        </mxCell>
        <mxCell id="5HdY6qBEU2Qn8acYaTiq-30" value="" style="endArrow=classic;html=1;rounded=0;exitX=0.5;exitY=1;exitDx=0;exitDy=0;entryX=0.5;entryY=0;entryDx=0;entryDy=0;" edge="1" parent="1" source="5HdY6qBEU2Qn8acYaTiq-12" target="5HdY6qBEU2Qn8acYaTiq-17">
          <mxGeometry width="50" height="50" relative="1" as="geometry">
            <mxPoint x="465" y="380" as="sourcePoint" />
            <mxPoint x="560" y="410" as="targetPoint" />
          </mxGeometry>
        </mxCell>
      </root>
    </mxGraphModel>
  </diagram>
</mxfile>
